<?xml version="1.0" encoding="UTF-8" standalone="no"?><svg xmlns="http://www.w3.org/2000/svg" xmlns:xlink="http://www.w3.org/1999/xlink" contentScriptType="application/ecmascript" contentStyleType="text/css" height="118px" preserveAspectRatio="none" style="width:739px;height:118px;" version="1.1" viewBox="0 0 739 118" width="739px" zoomAndPan="magnify"><defs><filter height="300%" id="fgn1za46t1xdx" width="300%" x="-1" y="-1"><feGaussianBlur result="blurOut" stdDeviation="2.0"/><feColorMatrix in="blurOut" result="blurOut2" type="matrix" values="0 0 0 0 0 0 0 0 0 0 0 0 0 0 0 0 0 0 .4 0"/><feOffset dx="4.0" dy="4.0" in="blurOut2" result="blurOut3"/><feBlend in="SourceGraphic" in2="blurOut3" mode="normal"/></filter></defs><g><ellipse cx="16" cy="87" fill="#000000" filter="url(#fgn1za46t1xdx)" rx="10" ry="10" style="stroke: none; stroke-width: 1.0;"/><rect fill="#FEFECE" filter="url(#fgn1za46t1xdx)" height="40" rx="12.5" ry="12.5" style="stroke: #A80036; stroke-width: 1.5;" width="85" x="160.5" y="67"/><text fill="#000000" font-family="sans-serif" font-size="14" lengthAdjust="spacingAndGlyphs" textLength="75" x="165.5" y="91.8467">WebServer</text><rect fill="#FEFECE" filter="url(#fgn1za46t1xdx)" height="40" rx="12.5" ry="12.5" style="stroke: #A80036; stroke-width: 1.5;" width="86" x="642" y="67"/><text fill="#000000" font-family="sans-serif" font-size="14" lengthAdjust="spacingAndGlyphs" textLength="76" x="647" y="91.8467">AuthServer</text><rect fill="#FEFECE" filter="url(#fgn1za46t1xdx)" height="40" rx="12.5" ry="12.5" style="stroke: #A80036; stroke-width: 1.5;" width="54" x="447" y="67"/><text fill="#000000" font-family="sans-serif" font-size="14" lengthAdjust="spacingAndGlyphs" textLength="44" x="452" y="91.8467">Cache</text><rect fill="#FEFECE" filter="url(#fgn1za46t1xdx)" height="40" rx="12.5" ry="12.5" style="stroke: #A80036; stroke-width: 1.5;" width="76" x="336" y="67"/><text fill="#000000" font-family="sans-serif" font-size="14" lengthAdjust="spacingAndGlyphs" textLength="66" x="341" y="91.8467">Database</text><!--link *start to WebServer--><path d="M26.0539,87 C49.8921,87 111.1181,87 154.8615,87 " fill="none" id="*start-WebServer" style="stroke: #A80036; stroke-width: 1.0;"/><polygon fill="#A80036" points="160.1058,87,151.1058,83,155.1058,87,151.1058,91,160.1058,87" style="stroke: #A80036; stroke-width: 1.0;"/><text fill="#000000" font-family="sans-serif" font-size="13" lengthAdjust="spacingAndGlyphs" textLength="98" x="44.25" y="80.0669">get a web page</text><!--link WebServer to AuthServer--><path d="M245.5882,70.7209 C285.2635,56.4828 346.4119,36.8833 401.5,29 C428.0077,25.2066 618.6162,16.8916 642.5,29 C656.383,36.0383 666.8245,49.9797 673.8835,62.43 " fill="none" id="WebServer-AuthServer" style="stroke: #A80036; stroke-width: 1.0;"/><polygon fill="#A80036" points="676.3312,66.934,675.5481,57.1163,673.9436,62.5409,668.5191,60.9364,676.3312,66.934" style="stroke: #A80036; stroke-width: 1.0;"/><text fill="#000000" font-family="sans-serif" font-size="13" lengthAdjust="spacingAndGlyphs" textLength="239" x="402.5" y="33.0669">is the user authenticated/authorized?</text><!--link WebServer to Cache--><path d="M211.6688,66.934 C218.6628,53.508 229.912,36.9027 245.5,29 C260.4645,21.4134 380.5805,23.7026 396.5,29 C417.0515,35.8387 436.553,50.4923 450.8526,63.3585 " fill="none" id="WebServer-Cache" style="stroke: #A80036; stroke-width: 1.0;"/><polygon fill="#A80036" points="454.7445,66.9321,450.8207,57.8986,451.0616,63.5503,445.4099,63.7912,454.7445,66.9321" style="stroke: #A80036; stroke-width: 1.0;"/><text fill="#000000" font-family="sans-serif" font-size="13" lengthAdjust="spacingAndGlyphs" textLength="149" x="246.5" y="33.0669">get cached result if any</text><!--link WebServer to Database--><path d="M245.7094,87 C271.6769,87 304.7396,87 330.7964,87 " fill="none" id="WebServer-Database" style="stroke: #A80036; stroke-width: 1.0;"/><polygon fill="#A80036" points="335.9102,87,326.9102,83,330.9102,87,326.9102,91,335.9102,87" style="stroke: #A80036; stroke-width: 1.0;"/><text fill="#000000" font-family="sans-serif" font-size="13" lengthAdjust="spacingAndGlyphs" textLength="54" x="263.75" y="80.0669">get data</text><!--
@startuml
hide empty description

[*] -> WebServer : get a web page
WebServer -> AuthServer : is the user authenticated/authorized?
WebServer -> Cache : get cached result if any
WebServer -> Database : get data


@enduml

PlantUML version 1.2019.07(Mon Jun 24 21:59:20 CEST 2019)
(GPL source distribution)
Java Runtime: OpenJDK Runtime Environment
JVM: OpenJDK 64-Bit Server VM
Java Version: 1.8.0_151-b12
Operating System: Linux
OS Version: 4.4.14-11.pvops.qubes.x86_64
Default Encoding: UTF-8
Language: en
Country: US
--></g></svg>