<?xml version="1.0" encoding="UTF-8" standalone="no"?><svg xmlns="http://www.w3.org/2000/svg" xmlns:xlink="http://www.w3.org/1999/xlink" contentScriptType="application/ecmascript" contentStyleType="text/css" height="118px" preserveAspectRatio="none" style="width:827px;height:118px;" version="1.1" viewBox="0 0 827 118" width="827px" zoomAndPan="magnify"><defs><filter height="300%" id="f7oc6bev3uetl" width="300%" x="-1" y="-1"><feGaussianBlur result="blurOut" stdDeviation="2.0"/><feColorMatrix in="blurOut" result="blurOut2" type="matrix" values="0 0 0 0 0 0 0 0 0 0 0 0 0 0 0 0 0 0 .4 0"/><feOffset dx="4.0" dy="4.0" in="blurOut2" result="blurOut3"/><feBlend in="SourceGraphic" in2="blurOut3" mode="normal"/></filter></defs><g><ellipse cx="16" cy="87" fill="#000000" filter="url(#f7oc6bev3uetl)" rx="10" ry="10" style="stroke: none; stroke-width: 1.0;"/><rect fill="#FEFECE" filter="url(#f7oc6bev3uetl)" height="40" rx="12.5" ry="12.5" style="stroke: #A80036; stroke-width: 1.5;" width="85" x="160.5" y="67"/><text fill="#000000" font-family="sans-serif" font-size="14" lengthAdjust="spacingAndGlyphs" textLength="75" x="165.5" y="91.8467">WebServer</text><rect fill="#FEFECE" filter="url(#f7oc6bev3uetl)" height="40" rx="12.5" ry="12.5" style="stroke: #A80036; stroke-width: 1.5;" width="86" x="730" y="67"/><text fill="#000000" font-family="sans-serif" font-size="14" lengthAdjust="spacingAndGlyphs" textLength="76" x="735" y="91.8467">AuthServer</text><rect fill="#FEFECE" filter="url(#f7oc6bev3uetl)" height="40" rx="12.5" ry="12.5" style="stroke: #A80036; stroke-width: 1.5;" width="54" x="641" y="67"/><text fill="#000000" font-family="sans-serif" font-size="14" lengthAdjust="spacingAndGlyphs" textLength="44" x="646" y="91.8467">Cache</text><rect fill="#FEFECE" filter="url(#f7oc6bev3uetl)" height="40" rx="12.5" ry="12.5" style="stroke: #A80036; stroke-width: 1.5;" width="71" x="368.5" y="67"/><text fill="#000000" font-family="sans-serif" font-size="14" lengthAdjust="spacingAndGlyphs" textLength="61" x="373.5" y="91.8467">Backend</text><rect fill="#FEFECE" filter="url(#f7oc6bev3uetl)" height="40" rx="12.5" ry="12.5" style="stroke: #A80036; stroke-width: 1.5;" width="76" x="530" y="67"/><text fill="#000000" font-family="sans-serif" font-size="14" lengthAdjust="spacingAndGlyphs" textLength="66" x="535" y="91.8467">Database</text><!--link *start to WebServer--><path d="M26.0539,87 C49.8921,87 111.1181,87 154.8615,87 " fill="none" id="*start-WebServer" style="stroke: #A80036; stroke-width: 1.0;"/><polygon fill="#A80036" points="160.1058,87,151.1058,83,155.1058,87,151.1058,91,160.1058,87" style="stroke: #A80036; stroke-width: 1.0;"/><text fill="#000000" font-family="sans-serif" font-size="13" lengthAdjust="spacingAndGlyphs" textLength="98" x="44.25" y="80.0669">get a web page</text><!--link WebServer to AuthServer--><path d="M245.5942,74.6759 C297.4779,60.361 388.046,37.6091 467.5,29 C494.122,26.1154 683.4977,19.4118 708.5,29 C726.3399,35.8414 742.3394,50.1478 753.941,62.8393 " fill="none" id="WebServer-AuthServer" style="stroke: #A80036; stroke-width: 1.0;"/><polygon fill="#A80036" points="757.3974,66.7162,754.3938,57.3365,754.07,62.9841,748.4224,62.6603,757.3974,66.7162" style="stroke: #A80036; stroke-width: 1.0;"/><text fill="#000000" font-family="sans-serif" font-size="13" lengthAdjust="spacingAndGlyphs" textLength="239" x="468.5" y="33.0669">is the user authenticated/authorized?</text><!--link WebServer to Cache--><path d="M224.9182,66.8949 C241.3463,53.2615 265.1098,36.4202 289.5,29 C361.0725,7.2255 552.8791,43.7928 624,67 C628.0135,68.3096 632.1489,69.877 636.2033,71.5502 " fill="none" id="WebServer-Cache" style="stroke: #A80036; stroke-width: 1.0;"/><polygon fill="#A80036" points="640.9135,73.5539,634.1976,66.35,636.3125,71.5966,631.0659,73.7116,640.9135,73.5539" style="stroke: #A80036; stroke-width: 1.0;"/><text fill="#000000" font-family="sans-serif" font-size="13" lengthAdjust="spacingAndGlyphs" textLength="149" x="290.5" y="33.0669">get cached result if any</text><!--link WebServer to Backend--><path d="M245.6269,87 C280.3022,87 328.9209,87 363.1173,87 " fill="none" id="WebServer-Backend" style="stroke: #A80036; stroke-width: 1.0;"/><polygon fill="#A80036" points="368.4774,87,359.4774,83,363.4774,87,359.4774,91,368.4774,87" style="stroke: #A80036; stroke-width: 1.0;"/><text fill="#000000" font-family="sans-serif" font-size="13" lengthAdjust="spacingAndGlyphs" textLength="86" x="264" y="80.0669">get web page</text><!--link Backend to Database--><path d="M439.5856,87 C464.5797,87 498.1523,87 524.7013,87 " fill="none" id="Backend-Database" style="stroke: #A80036; stroke-width: 1.0;"/><polygon fill="#A80036" points="529.9129,87,520.9129,83,524.9129,87,520.9129,91,529.9129,87" style="stroke: #A80036; stroke-width: 1.0;"/><text fill="#000000" font-family="sans-serif" font-size="13" lengthAdjust="spacingAndGlyphs" textLength="54" x="457.75" y="80.0669">get data</text><!--
@startuml
hide empty description

[*] -> WebServer : get a web page
WebServer -> AuthServer : is the user authenticated/authorized?
WebServer -> Cache : get cached result if any
WebServer -> Backend: get web page
Backend -> Database : get data

@enduml

PlantUML version 1.2019.07(Mon Jun 24 21:59:20 CEST 2019)
(GPL source distribution)
Java Runtime: OpenJDK Runtime Environment
JVM: OpenJDK 64-Bit Server VM
Java Version: 1.8.0_151-b12
Operating System: Linux
OS Version: 4.4.14-11.pvops.qubes.x86_64
Default Encoding: UTF-8
Language: en
Country: US
--></g></svg>