<?xml version="1.0" encoding="UTF-8" standalone="no"?><svg xmlns="http://www.w3.org/2000/svg" xmlns:xlink="http://www.w3.org/1999/xlink" contentScriptType="application/ecmascript" contentStyleType="text/css" height="390px" preserveAspectRatio="none" style="width:462px;height:390px;" version="1.1" viewBox="0 0 462 390" width="462px" zoomAndPan="magnify"><defs><filter height="300%" id="f1dm8xep1shz0a" width="300%" x="-1" y="-1"><feGaussianBlur result="blurOut" stdDeviation="2.0"/><feColorMatrix in="blurOut" result="blurOut2" type="matrix" values="0 0 0 0 0 0 0 0 0 0 0 0 0 0 0 0 0 0 .4 0"/><feOffset dx="4.0" dy="4.0" in="blurOut2" result="blurOut3"/><feBlend in="SourceGraphic" in2="blurOut3" mode="normal"/></filter></defs><g><ellipse cx="19.5" cy="18" fill="#000000" filter="url(#f1dm8xep1shz0a)" rx="10" ry="10" style="stroke: none; stroke-width: 1.0;"/><rect fill="#FEFECE" filter="url(#f1dm8xep1shz0a)" height="40" rx="12.5" ry="12.5" style="stroke: #A80036; stroke-width: 1.5;" width="85" x="6" y="105"/><text fill="#000000" font-family="sans-serif" font-size="14" lengthAdjust="spacingAndGlyphs" textLength="75" x="11" y="129.8467">WebServer</text><rect fill="#FEFECE" filter="url(#f1dm8xep1shz0a)" height="40" rx="12.5" ry="12.5" style="stroke: #A80036; stroke-width: 1.5;" width="86" x="365.5" y="105"/><text fill="#000000" font-family="sans-serif" font-size="14" lengthAdjust="spacingAndGlyphs" textLength="76" x="370.5" y="129.8467">AuthServer</text><rect fill="#FEFECE" filter="url(#f1dm8xep1shz0a)" height="40" rx="12.5" ry="12.5" style="stroke: #A80036; stroke-width: 1.5;" width="54" x="276.5" y="105"/><text fill="#000000" font-family="sans-serif" font-size="14" lengthAdjust="spacingAndGlyphs" textLength="44" x="281.5" y="129.8467">Cache</text><rect fill="#FEFECE" filter="url(#f1dm8xep1shz0a)" height="40" rx="12.5" ry="12.5" style="stroke: #A80036; stroke-width: 1.5;" width="71" x="13" y="222"/><text fill="#000000" font-family="sans-serif" font-size="14" lengthAdjust="spacingAndGlyphs" textLength="61" x="18" y="246.8467">Backend</text><rect fill="#FEFECE" filter="url(#f1dm8xep1shz0a)" height="40" rx="12.5" ry="12.5" style="stroke: #A80036; stroke-width: 1.5;" width="76" x="10.5" y="339"/><text fill="#000000" font-family="sans-serif" font-size="14" lengthAdjust="spacingAndGlyphs" textLength="66" x="15.5" y="363.8467">Database</text><!--link *start to WebServer--><path d="M17.0229,27.9114 C14.5778,39.4672 11.8248,59.0219 16.5,75 C19.1374,84.0135 23.9517,92.9455 29.0591,100.7118 " fill="none" id="*start-WebServer" style="stroke: #A80036; stroke-width: 1.0;"/><polygon fill="#A80036" points="31.9147,104.8997,30.1491,95.2104,29.0978,100.7687,23.5395,99.7174,31.9147,104.8997" style="stroke: #A80036; stroke-width: 1.0;"/><text fill="#000000" font-family="sans-serif" font-size="13" lengthAdjust="spacingAndGlyphs" textLength="98" x="17.5" y="71.0669">get a web page</text><!--link WebServer to AuthServer--><path d="M67.4578,104.9369 C81.7803,91.3237 102.7251,74.4895 125,67 C150.3815,58.466 342.1162,54.8916 366,67 C379.883,74.0383 390.3245,87.9797 397.3835,100.43 " fill="none" id="WebServer-AuthServer" style="stroke: #A80036; stroke-width: 1.0;"/><polygon fill="#A80036" points="399.8312,104.934,399.0481,95.1163,397.4436,100.5409,392.0191,98.9364,399.8312,104.934" style="stroke: #A80036; stroke-width: 1.0;"/><text fill="#000000" font-family="sans-serif" font-size="13" lengthAdjust="spacingAndGlyphs" textLength="239" x="126" y="71.0669">is the user authenticated/authorized?</text><!--link WebServer to Cache--><path d="M91.1813,125 C141.9668,125 225.6106,125 271.2808,125 " fill="none" id="WebServer-Cache" style="stroke: #A80036; stroke-width: 1.0;"/><polygon fill="#A80036" points="276.3879,125,267.3879,121,271.3879,125,267.3879,129,276.3879,125" style="stroke: #A80036; stroke-width: 1.0;"/><text fill="#000000" font-family="sans-serif" font-size="13" lengthAdjust="spacingAndGlyphs" textLength="149" x="109.25" y="118.0669">get cached result if any</text><!--link WebServer to Backend--><path d="M48.5,145.113 C48.5,164.869 48.5,195.0824 48.5,216.5109 " fill="none" id="WebServer-Backend" style="stroke: #A80036; stroke-width: 1.0;"/><polygon fill="#A80036" points="48.5,221.7579,52.5,212.7579,48.5,216.7579,44.5,212.7579,48.5,221.7579" style="stroke: #A80036; stroke-width: 1.0;"/><text fill="#000000" font-family="sans-serif" font-size="13" lengthAdjust="spacingAndGlyphs" textLength="86" x="49.5" y="188.0669">get web page</text><!--link Backend to Database--><path d="M48.5,262.113 C48.5,281.869 48.5,312.0824 48.5,333.5109 " fill="none" id="Backend-Database" style="stroke: #A80036; stroke-width: 1.0;"/><polygon fill="#A80036" points="48.5,338.7579,52.5,329.7579,48.5,333.7579,44.5,329.7579,48.5,338.7579" style="stroke: #A80036; stroke-width: 1.0;"/><text fill="#000000" font-family="sans-serif" font-size="13" lengthAdjust="spacingAndGlyphs" textLength="54" x="49.5" y="305.0669">get data</text><!--
@startuml
hide empty description

[*] - -> WebServer : get a web page
WebServer -> AuthServer : is the user authenticated/authorized?
WebServer -> Cache : get cached result if any
WebServer - -> Backend: get web page
Backend - -> Database : get data

@enduml

PlantUML version 1.2019.07(Mon Jun 24 21:59:20 CEST 2019)
(GPL source distribution)
Java Runtime: OpenJDK Runtime Environment
JVM: OpenJDK 64-Bit Server VM
Java Version: 1.8.0_151-b12
Operating System: Linux
OS Version: 4.4.14-11.pvops.qubes.x86_64
Default Encoding: UTF-8
Language: en
Country: US
--></g></svg>