<?xml version="1.0" encoding="UTF-8" standalone="no"?><svg xmlns="http://www.w3.org/2000/svg" xmlns:xlink="http://www.w3.org/1999/xlink" contentScriptType="application/ecmascript" contentStyleType="text/css" height="176px" preserveAspectRatio="none" style="width:617px;height:176px;" version="1.1" viewBox="0 0 617 176" width="617px" zoomAndPan="magnify"><defs><filter height="300%" id="f16cnfuif5wcn" width="300%" x="-1" y="-1"><feGaussianBlur result="blurOut" stdDeviation="2.0"/><feColorMatrix in="blurOut" result="blurOut2" type="matrix" values="0 0 0 0 0 0 0 0 0 0 0 0 0 0 0 0 0 0 .4 0"/><feOffset dx="4.0" dy="4.0" in="blurOut2" result="blurOut3"/><feBlend in="SourceGraphic" in2="blurOut3" mode="normal"/></filter></defs><g><ellipse cx="16" cy="28" fill="#000000" filter="url(#f16cnfuif5wcn)" rx="10" ry="10" style="stroke: none; stroke-width: 1.0;"/><rect fill="#FEFECE" filter="url(#f16cnfuif5wcn)" height="40" rx="12.5" ry="12.5" style="stroke: #A80036; stroke-width: 1.5;" width="85" x="160.5" y="8"/><text fill="#000000" font-family="sans-serif" font-size="14" lengthAdjust="spacingAndGlyphs" textLength="75" x="165.5" y="32.8467">WebServer</text><rect fill="#FEFECE" filter="url(#f16cnfuif5wcn)" height="40" rx="12.5" ry="12.5" style="stroke: #A80036; stroke-width: 1.5;" width="86" x="19" y="125"/><text fill="#000000" font-family="sans-serif" font-size="14" lengthAdjust="spacingAndGlyphs" textLength="76" x="24" y="149.8467">AuthServer</text><rect fill="#FEFECE" filter="url(#f16cnfuif5wcn)" height="40" rx="12.5" ry="12.5" style="stroke: #A80036; stroke-width: 1.5;" width="54" x="316" y="125"/><text fill="#000000" font-family="sans-serif" font-size="14" lengthAdjust="spacingAndGlyphs" textLength="44" x="321" y="149.8467">Cache</text><rect fill="#FEFECE" filter="url(#f16cnfuif5wcn)" height="40" rx="12.5" ry="12.5" style="stroke: #A80036; stroke-width: 1.5;" width="71" x="368.5" y="8"/><text fill="#000000" font-family="sans-serif" font-size="14" lengthAdjust="spacingAndGlyphs" textLength="61" x="373.5" y="32.8467">Backend</text><rect fill="#FEFECE" filter="url(#f16cnfuif5wcn)" height="40" rx="12.5" ry="12.5" style="stroke: #A80036; stroke-width: 1.5;" width="76" x="530" y="8"/><text fill="#000000" font-family="sans-serif" font-size="14" lengthAdjust="spacingAndGlyphs" textLength="66" x="535" y="32.8467">Database</text><!--link *start to WebServer--><path d="M26.0539,28 C49.8921,28 111.1181,28 154.8615,28 " fill="none" id="*start-WebServer" style="stroke: #A80036; stroke-width: 1.0;"/><polygon fill="#A80036" points="160.1058,28,151.1058,24,155.1058,28,151.1058,32,160.1058,28" style="stroke: #A80036; stroke-width: 1.0;"/><text fill="#000000" font-family="sans-serif" font-size="13" lengthAdjust="spacingAndGlyphs" textLength="98" x="44.25" y="21.0669">get a web page</text><!--link WebServer to AuthServer--><path d="M160.4022,36.6348 C121.2796,45.5322 67.5322,60.5382 55,78 C46.4367,89.9318 47.9591,106.2797 51.7328,119.84 " fill="none" id="WebServer-AuthServer" style="stroke: #A80036; stroke-width: 1.0;"/><polygon fill="#A80036" points="53.2105,124.6965,54.4172,114.9218,51.7549,119.9131,46.7637,117.2508,53.2105,124.6965" style="stroke: #A80036; stroke-width: 1.0;"/><text fill="#000000" font-family="sans-serif" font-size="13" lengthAdjust="spacingAndGlyphs" textLength="239" x="56" y="91.0669">is the user authenticated/authorized?</text><!--link WebServer to Cache--><path d="M245.7042,42.6 C265.1272,50.7826 287.4192,62.5017 304,78 C316.5442,89.7252 326.2714,106.4036 332.8739,120.1863 " fill="none" id="WebServer-Cache" style="stroke: #A80036; stroke-width: 1.0;"/><polygon fill="#A80036" points="334.9927,124.7381,334.8208,114.8907,332.8826,120.2052,327.5682,118.2669,334.9927,124.7381" style="stroke: #A80036; stroke-width: 1.0;"/><text fill="#000000" font-family="sans-serif" font-size="13" lengthAdjust="spacingAndGlyphs" textLength="149" x="318" y="91.0669">get cached result if any</text><!--link WebServer to Backend--><path d="M245.6269,28 C280.3022,28 328.9209,28 363.1173,28 " fill="none" id="WebServer-Backend" style="stroke: #A80036; stroke-width: 1.0;"/><polygon fill="#A80036" points="368.4774,28,359.4774,24,363.4774,28,359.4774,32,368.4774,28" style="stroke: #A80036; stroke-width: 1.0;"/><text fill="#000000" font-family="sans-serif" font-size="13" lengthAdjust="spacingAndGlyphs" textLength="86" x="264" y="21.0669">get web page</text><!--link Backend to Database--><path d="M439.5856,28 C464.5797,28 498.1523,28 524.7013,28 " fill="none" id="Backend-Database" style="stroke: #A80036; stroke-width: 1.0;"/><polygon fill="#A80036" points="529.9129,28,520.9129,24,524.9129,28,520.9129,32,529.9129,28" style="stroke: #A80036; stroke-width: 1.0;"/><text fill="#000000" font-family="sans-serif" font-size="13" lengthAdjust="spacingAndGlyphs" textLength="54" x="457.75" y="21.0669">get data</text><!--
@startuml
hide empty description

[*] -> WebServer : get a web page
WebServer - -> AuthServer : is the user authenticated/authorized?
WebServer - -> Cache : get cached result if any
WebServer -> Backend: get web page
Backend -> Database : get data

@enduml

PlantUML version 1.2019.07(Mon Jun 24 21:59:20 CEST 2019)
(GPL source distribution)
Java Runtime: OpenJDK Runtime Environment
JVM: OpenJDK 64-Bit Server VM
Java Version: 1.8.0_151-b12
Operating System: Linux
OS Version: 4.4.14-11.pvops.qubes.x86_64
Default Encoding: UTF-8
Language: en
Country: US
--></g></svg>