<?xml version="1.0" encoding="UTF-8" standalone="no"?><svg xmlns="http://www.w3.org/2000/svg" xmlns:xlink="http://www.w3.org/1999/xlink" contentScriptType="application/ecmascript" contentStyleType="text/css" height="253px" preserveAspectRatio="none" style="width:277px;height:253px;" version="1.1" viewBox="0 0 277 253" width="277px" zoomAndPan="magnify"><defs><filter height="300%" id="f18292erlpvb7q" width="300%" x="-1" y="-1"><feGaussianBlur result="blurOut" stdDeviation="2.0"/><feColorMatrix in="blurOut" result="blurOut2" type="matrix" values="0 0 0 0 0 0 0 0 0 0 0 0 0 0 0 0 0 0 .4 0"/><feOffset dx="4.0" dy="4.0" in="blurOut2" result="blurOut3"/><feBlend in="SourceGraphic" in2="blurOut3" mode="normal"/></filter></defs><g><rect fill="#FEFECE" filter="url(#f18292erlpvb7q)" height="40" rx="12.5" ry="12.5" style="stroke: #A80036; stroke-width: 1.5;" width="116" x="6" y="105"/><text fill="#000000" font-family="sans-serif" font-size="14" lengthAdjust="spacingAndGlyphs" textLength="106" x="11" y="129.8467">running to right</text><ellipse cx="64" cy="18" fill="#000000" filter="url(#f18292erlpvb7q)" rx="10" ry="10" style="stroke: none; stroke-width: 1.0;"/><ellipse cx="64" cy="232" fill="none" filter="url(#f18292erlpvb7q)" rx="10" ry="10" style="stroke: #000000; stroke-width: 1.0;"/><ellipse cx="64.5" cy="232.5" fill="#000000" rx="6" ry="6" style="stroke: none; stroke-width: 1.0;"/><!--link *start to RunR--><path d="M64,28.2596 C64,44.5304 64,76.7386 64,99.5131 " fill="none" id="*start-RunR" style="stroke: #A80036; stroke-width: 1.0;"/><polygon fill="#A80036" points="64,104.7955,68,95.7955,64,99.7955,60,95.7955,64,104.7955" style="stroke: #A80036; stroke-width: 1.0;"/><text fill="#000000" font-family="sans-serif" font-size="13" lengthAdjust="spacingAndGlyphs" textLength="102" x="65" y="71.0669">(right key down)</text><!--link RunR to *end--><path d="M64,145.1259 C64,165.8638 64,197.7409 64,216.5681 " fill="none" id="RunR-*end" style="stroke: #A80036; stroke-width: 1.0;"/><polygon fill="#A80036" points="64,221.9653,68,212.9653,64,216.9653,60,212.9653,64,221.9653" style="stroke: #A80036; stroke-width: 1.0;"/><text fill="#000000" font-family="sans-serif" font-size="13" lengthAdjust="spacingAndGlyphs" textLength="85" x="65" y="188.0669">(right key up)</text><!--link RunR to RunR--><path d="M122.125,114.125 C141.5,114.125 157,117.75 157,125 C157,131.5703 144.27,135.1635 127.4625,135.7794 " fill="none" id="RunR-RunR" style="stroke: #A80036; stroke-width: 1.0;"/><polygon fill="#A80036" points="122.125,135.875,131.1953,139.7129,127.1242,135.7853,131.0518,131.7142,122.125,135.875" style="stroke: #A80036; stroke-width: 1.0;"/><text fill="#000000" font-family="sans-serif" font-size="13" lengthAdjust="spacingAndGlyphs" textLength="102" x="163" y="129.5669">(right key down)</text><!--
@startuml
hide empty description

state "running to right" as RunR

[*] - -> RunR  : (right key down)
RunR - -> [*]  : (right key up)

RunR -> RunR : (right key down)

@enduml

PlantUML version 1.2019.07(Mon Jun 24 21:59:20 CEST 2019)
(GPL source distribution)
Java Runtime: OpenJDK Runtime Environment
JVM: OpenJDK 64-Bit Server VM
Java Version: 1.8.0_151-b12
Operating System: Linux
OS Version: 4.4.14-11.pvops.qubes.x86_64
Default Encoding: UTF-8
Language: en
Country: US
--></g></svg>