<?xml version="1.0" encoding="UTF-8" standalone="no"?><svg xmlns="http://www.w3.org/2000/svg" xmlns:xlink="http://www.w3.org/1999/xlink" contentScriptType="application/ecmascript" contentStyleType="text/css" height="176px" preserveAspectRatio="none" style="width:584px;height:176px;" version="1.1" viewBox="0 0 584 176" width="584px" zoomAndPan="magnify"><defs><filter height="300%" id="fuu48qenxvyg0" width="300%" x="-1" y="-1"><feGaussianBlur result="blurOut" stdDeviation="2.0"/><feColorMatrix in="blurOut" result="blurOut2" type="matrix" values="0 0 0 0 0 0 0 0 0 0 0 0 0 0 0 0 0 0 .4 0"/><feOffset dx="4.0" dy="4.0" in="blurOut2" result="blurOut3"/><feBlend in="SourceGraphic" in2="blurOut3" mode="normal"/></filter></defs><g><ellipse cx="16" cy="28" fill="#000000" filter="url(#fuu48qenxvyg0)" rx="10" ry="10" style="stroke: none; stroke-width: 1.0;"/><rect fill="#FEFECE" filter="url(#fuu48qenxvyg0)" height="40" rx="12.5" ry="12.5" style="stroke: #A80036; stroke-width: 1.5;" width="85" x="160.5" y="8"/><text fill="#000000" font-family="sans-serif" font-size="14" lengthAdjust="spacingAndGlyphs" textLength="75" x="165.5" y="32.8467">WebServer</text><rect fill="#FEFECE" filter="url(#fuu48qenxvyg0)" height="40" rx="12.5" ry="12.5" style="stroke: #A80036; stroke-width: 1.5;" width="86" x="142" y="125"/><text fill="#000000" font-family="sans-serif" font-size="14" lengthAdjust="spacingAndGlyphs" textLength="76" x="147" y="149.8467">AuthServer</text><rect fill="#FEFECE" filter="url(#fuu48qenxvyg0)" height="40" rx="12.5" ry="12.5" style="stroke: #A80036; stroke-width: 1.5;" width="54" x="298" y="125"/><text fill="#000000" font-family="sans-serif" font-size="14" lengthAdjust="spacingAndGlyphs" textLength="44" x="303" y="149.8467">Cache</text><rect fill="#FEFECE" filter="url(#fuu48qenxvyg0)" height="40" rx="12.5" ry="12.5" style="stroke: #A80036; stroke-width: 1.5;" width="71" x="324.5" y="8"/><text fill="#000000" font-family="sans-serif" font-size="14" lengthAdjust="spacingAndGlyphs" textLength="61" x="329.5" y="32.8467">Backend</text><rect fill="#FEFECE" filter="url(#fuu48qenxvyg0)" height="40" rx="12.5" ry="12.5" style="stroke: #A80036; stroke-width: 1.5;" width="76" x="497" y="8"/><text fill="#000000" font-family="sans-serif" font-size="14" lengthAdjust="spacingAndGlyphs" textLength="66" x="502" y="32.8467">Database</text><!--link *start to WebServer--><path d="M26.0539,28 C49.8921,28 111.1181,28 154.8615,28 " fill="none" id="*start-WebServer" style="stroke: #A80036; stroke-width: 1.0;"/><polygon fill="#A80036" points="160.1058,28,151.1058,24,155.1058,28,151.1058,32,160.1058,28" style="stroke: #A80036; stroke-width: 1.0;"/><text fill="#000000" font-family="sans-serif" font-size="13" lengthAdjust="spacingAndGlyphs" textLength="98" x="44.25" y="21.0669">get a web page</text><!--link WebServer to AuthServer--><path d="M192.2957,48.3321 C188.2104,57.1881 184.0455,67.8474 182,78 C179.2634,91.5829 179.7192,107.0153 180.9908,119.6428 " fill="none" id="WebServer-AuthServer" style="stroke: #A80036; stroke-width: 1.0;"/><polygon fill="#A80036" points="181.5788,124.8692,184.5475,115.4784,181.0198,119.9005,176.5977,116.3728,181.5788,124.8692" style="stroke: #A80036; stroke-width: 1.0;"/><text fill="#000000" font-family="sans-serif" font-size="13" lengthAdjust="spacingAndGlyphs" textLength="38" x="183" y="91.0669">allow?</text><!--link WebServer to Cache--><path d="M223.9725,48.113 C245.0965,68.3713 277.6864,99.6254 300.1078,121.128 " fill="none" id="WebServer-Cache" style="stroke: #A80036; stroke-width: 1.0;"/><polygon fill="#A80036" points="303.8928,124.7579,300.1658,115.6414,300.2841,121.2971,294.6285,121.4154,303.8928,124.7579" style="stroke: #A80036; stroke-width: 1.0;"/><text fill="#000000" font-family="sans-serif" font-size="13" lengthAdjust="spacingAndGlyphs" textLength="53" x="273" y="91.0669">cached?</text><!--link WebServer to Backend--><path d="M245.9009,28 C268.7752,28 296.7658,28 319.2987,28 " fill="none" id="WebServer-Backend" style="stroke: #A80036; stroke-width: 1.0;"/><polygon fill="#A80036" points="324.3129,28,315.3129,24,319.3129,28,315.3129,32,324.3129,28" style="stroke: #A80036; stroke-width: 1.0;"/><text fill="#000000" font-family="sans-serif" font-size="13" lengthAdjust="spacingAndGlyphs" textLength="42" x="264" y="21.0669">render</text><!--link Backend to Database--><path d="M395.8362,28 C423.6276,28 462.2523,28 491.7606,28 " fill="none" id="Backend-Database" style="stroke: #A80036; stroke-width: 1.0;"/><polygon fill="#A80036" points="496.7864,28,487.7864,24,491.7864,28,487.7864,32,496.7864,28" style="stroke: #A80036; stroke-width: 1.0;"/><text fill="#000000" font-family="sans-serif" font-size="13" lengthAdjust="spacingAndGlyphs" textLength="65" x="413.75" y="21.0669">fetch data</text><!--link Backend to Cache--><path d="M353.9833,48.113 C348.0483,67.9527 338.9585,98.3386 332.5436,119.7829 " fill="none" id="Backend-Cache" style="stroke: #A80036; stroke-width: 1.0;"/><polygon fill="#A80036" points="331.0553,124.7579,337.4669,117.2818,332.4883,119.9676,329.8025,114.989,331.0553,124.7579" style="stroke: #A80036; stroke-width: 1.0;"/><text fill="#000000" font-family="sans-serif" font-size="13" lengthAdjust="spacingAndGlyphs" textLength="30" x="346" y="91.0669">save</text><!--
@startuml
hide empty description

[*] -> WebServer : get a web page
WebServer - -> AuthServer : allow?
WebServer - -> Cache  : cached?
WebServer -> Backend : render
Backend -> Database  : fetch data
Backend -> Cache     : save

@enduml

PlantUML version 1.2019.07(Mon Jun 24 21:59:20 CEST 2019)
(GPL source distribution)
Java Runtime: OpenJDK Runtime Environment
JVM: OpenJDK 64-Bit Server VM
Java Version: 1.8.0_151-b12
Operating System: Linux
OS Version: 4.4.14-11.pvops.qubes.x86_64
Default Encoding: UTF-8
Language: en
Country: US
--></g></svg>